<svg xmlns="http://www.w3.org/2000/svg" id="Layer_2" viewBox="0 0 489.49 366.59"><defs><style>.cls-1{fill:#0081c1}.cls-2{fill:#34ffff}.cls-3{fill:#b8ffff}.cls-4{fill:#00e4ff}</style></defs><g id="Layer_1-2"><g><path d="M337.81,281.82c9.98,.43,51.11,1.06,87.5-29.19,36.18-30.07,43.66-70.68,45.42-86.07,1.46-12.74,.75-23.6-.27-31.39l-9.07,3.35c9.36-21.42,18.73-42.84,28.09-64.27-13.48-5.99-51.27-20.54-95.23-8.39-52.33,14.46-92.48,60.96-104.45,119.58" class="cls-2"/><path d="M16.52,178.02c-4.91-23-11.12-57.14-14.67-99.27C-2.83,23.27,2.06,12.68,8.9,6.84c19.11-16.32,58.61,.03,89.66,12.88,29.62,12.26,51.57,27.27,65.35,37.93" class="cls-2"/><path d="M27.57,23.33c-6.15,4.39-8.69,13.1-6.97,44.47,1.65,30.19,4.63,84.61,17.15,85.66,8.22,.69,8.24-22.66,30.31-48.82,27.64-32.76,60.34-34.91,59.07-48.12-.74-7.77-18.2-13.7-53.1-25.55-35.71-12.13-42.29-10.61-46.46-7.63Z" class="cls-4"/><path d="M328.03,279.34c8.55,.37,43.78,.91,74.97-25.01,31-25.76,37.41-60.55,38.91-73.74,1.25-10.92,.64-20.22-.23-26.9-2.59,.96-5.18,1.91-7.77,2.87,8.02-18.35,16.04-36.71,24.06-55.06-11.55-5.13-43.92-17.59-81.59-7.18-44.83,12.39-79.23,52.23-89.49,102.45" class="cls-4"/><path d="M193.31,37.32C102.05,38.56,26.44,108.58,12.39,188.29c-1.74,9.86-11.81,67.04,22.46,113.54,69.78,94.67,277.19,82.37,333.14-16.22,24.22-42.68,13.26-89.55,9.98-103.56-17.97-76.84-92.63-145.98-184.66-144.74Z" class="cls-2"/><path d="M193.87,81.11c-75.27,1.02-137.62,58.76-149.2,124.51-1.43,8.13-9.74,55.29,18.52,93.64,57.54,78.08,228.6,67.93,274.74-13.38,19.98-35.2,10.93-73.85,8.23-85.41-14.82-63.37-76.39-120.39-152.29-119.36Z" class="cls-4"/><path d="M67.09,146.25c1.77,3.59,4.85,8.43,10.18,11.75,20.58,12.83,53.58-10.04,66.79-19.19,14.29-9.9,33.95-23.53,32.85-41.63-.39-6.33-3.2-11.41-5.62-14.78-18.93,2.74-37.86,5.48-56.8,8.23-15.8,18.54-31.6,37.08-47.4,55.62Z" class="cls-2"/><path d="M142.53,83.46c-20.14-9.05-43.16,10.72-45.73,12.97-5.7,4.99-19.16,16.78-15.7,29.35,2.91,10.56,16.47,14.18,17.06,14.33,12.94,3.29,24.26-4.85,35.32-12.8,10.52-7.56,24.57-17.66,22.69-29.18-1.43-8.78-11.34-13.64-13.65-14.67Z" class="cls-3"/><path d="M71.3,206.22c-13.17,1.4-23.21,12.83-24.23,25.55-1.18,14.69,9.88,28.72,24.23,30.2,16.52,1.71,31.72-13.8,30.2-30.53-1.32-14.6-15.06-26.83-30.2-25.22Z" class="cls-1"/><path d="M239.23,215.26c-13.17,1.4-23.21,12.83-24.23,25.55-1.18,14.69,9.88,28.72,24.23,30.2,16.52,1.71,31.72-13.8,30.2-30.53-1.32-14.6-15.06-26.83-30.2-25.22Z" class="cls-1"/><path d="M127.05,246.38c-3.31,.36-5.12,4.71-4.65,7.8,.57,3.72,4.45,5.63,5.81,6.31,8.9,4.4,19.96-2.56,21.63-3.65,3.24,2.33,13.21,8.9,23.02,5.85,2.03-.63,7.08-2.2,7.61-5.85,.38-2.64-1.7-5.71-4.48-6.64-2.29-.76-5.33-.17-5.97,1.33-.42,.99,.47,1.7,.17,2.82-.56,2.04-4.34,2.66-5.31,2.82-6.52,1.07-13.1-3.68-15.41-5.5-2.23,2.02-6.03,4.71-10.97,5-.49,.03-5.83,.3-6.64-1.83-.49-1.29,1.16-2.22,.93-4.11-.27-2.26-3.08-4.65-5.75-4.36Z" class="cls-1"/><path d="M459.26,99.74c-2.42-4.13-6.57-5.32-7.47-5.56-4.39,2.21-6.58,7.03-5.48,11.2,1.33,5.03,7.26,8.37,13.03,6.47,.2-.37,3.27-6.4-.08-12.11Z" class="cls-2"/><path d="M457.14,96.53c-2.38-.6-5.2,1.22-5.59,4.13-.34,2.53,1.31,4.88,3.2,5.57,2.42,.88,5.54-.85,6.01-3.85,.41-2.65-1.41-5.29-3.62-5.85Z" class="cls-3"/><path d="M374.45,185.82c6.87-22.49,16-55.97,23.16-97.64,9.43-54.87,5.47-65.84-.84-72.25-17.63-17.9-58.4-5.01-90.44,5.12-30.57,9.67-53.72,22.73-68.38,32.17" class="cls-2"/><path d="M376.75,30.75c5.52,5.21,7.54,13.72,3.12,44.91-4.24,29.94-11.89,83.9-24.46,83.86-8.3-.02-4.95-25.53-26-51.25-23.41-28.6-52.32-27.43-52.78-41.97-.56-17.65,41.68-31.24,49.78-33.85,16.23-5.22,38.87-12.51,50.33-1.7Z" class="cls-4"/><path d="M17.9,31.08c4.24,4.22,10.71,5.26,15.93,2.61,5.55-2.82,8.53-9.21,7.09-15.43-.74-.39-7.19-3.61-14.06-.37-5.09,2.4-8.51,7.46-8.96,13.19Z" class="cls-2"/><path d="M21.84,16.36c-1.86,1.75-2.18,4.69-1.29,6.88,1.41,3.46,6.09,5.68,9.46,3.66,2.94-1.77,3.77-6.1,1.94-9.03-2.15-3.45-7.41-4.05-10.11-1.51Z" class="cls-3"/><path d="M364.14,25.03c-2.46,5.46-1.15,11.88,3.17,15.83,4.59,4.2,11.63,4.74,16.94,1.2,.1-.83,.85-8-4.61-13.29-4.04-3.92-9.98-5.34-15.5-3.74Z" class="cls-2"/><path d="M379.31,23.53c-2.29-1.12-5.16-.39-6.9,1.22-2.74,2.53-3.18,7.7-.09,10.14,2.69,2.13,7.04,1.38,9.14-1.37,2.47-3.23,1.18-8.36-2.15-9.99Z" class="cls-3"/><path d="M136.23,258.3c.66,2.64,1.32,5.29,1.98,7.93,1.58-2.75,3.16-5.5,4.73-8.25" class="cls-3"/><path d="M163.5,257.91c-.75,3-1.5,6-2.25,9.01-1.92-3.21-3.85-6.42-5.77-9.63" class="cls-3"/><path d="M127.05,246.38c-3.31,.36-5.12,4.71-4.65,7.8,.57,3.72,4.45,5.63,5.81,6.31,8.9,4.4,19.96-2.56,21.63-3.65,3.24,2.33,13.21,8.9,23.02,5.85,2.03-.63,7.08-2.2,7.61-5.85,.38-2.64-1.7-5.71-4.48-6.64-2.29-.76-5.33-.17-5.97,1.33-.42,.99,.47,1.7,.17,2.82-.56,2.04-4.34,2.66-5.31,2.82-6.52,1.07-13.1-3.68-15.41-5.5-2.23,2.02-6.03,4.71-10.97,5-.49,.03-5.83,.3-6.64-1.83-.49-1.29,1.16-2.22,.93-4.11-.27-2.26-3.08-4.65-5.75-4.36Z" class="cls-1"/></g></g></svg>