<svg xmlns="http://www.w3.org/2000/svg" xmlns:xlink="http://www.w3.org/1999/xlink" id="a" viewBox="0 0 48 48"><defs><style>.f{filter:url(#b)}.f,.g{fill:#c4ffff}.f,.h{opacity:.25}.i{fill:#fff}.j{fill:#70d1ff}.k{fill:#22b0ff}.l{fill:url(#d)}.m{fill:url(#e)}</style><filter id="b" filterUnits="userSpaceOnUse"><feOffset dx="0" dy="0"/><feGaussianBlur result="c" stdDeviation="2"/><feFlood flood-color="#000" flood-opacity="1"/><feComposite in2="c" operator="in"/><feComposite in="SourceGraphic"/></filter><radialGradient id="d" cx="25.07" cy="32.56" r="12.53" fx="25.07" fy="32.56" gradientTransform="translate(-9.2 9.31) rotate(-25)" gradientUnits="userSpaceOnUse"><stop offset="0" stop-color="#24d6ff"/><stop offset="1" stop-color="#22b0ff"/></radialGradient><radialGradient id="e" cx="25.34" cy="15.15" r="23.03" fx="25.34" fy="15.15" gradientTransform="translate(-8.87 10.81) rotate(-25)" gradientUnits="userSpaceOnUse"><stop offset="0" stop-color="#9fe4ff"/><stop offset="1" stop-color="#54c3ef"/></radialGradient></defs><path d="M32.04,6.23l10.42,22.35c.03,.06,.05,.12,.08,.19,1.62,3.9-2.31,9.46-8.88,12.53-6.68,3.11-13.57,2.47-15.39-1.43l-6-12.87c-2.47,1.01-4.43,1.2-5.59,1.23-.8,0-1.28-.05-1.69-.37-2.01-1.54,.07-7.31,.62-8.85,.68-1.87,1.46-3.34,2.02-4.28,.06-.38,.17-.76,.32-1.16,.11-.31,.24-.62,.39-.92,.08-.17,.16-.33,.25-.49,.02-.03,.04-.06,.06-.11,.07-.13,.15-.27,.23-.4,.08-.14,.17-.27,.26-.41,.25-.36,.53-.72,.83-1.08,.18-.21,.37-.42,.56-.64,.35-.38,.73-.75,1.14-1.11,.14-.13,.28-.25,.43-.36,.1-.08,.2-.17,.3-.25,.14-.11,.27-.22,.42-.32,.17-.13,.35-.27,.54-.4,.17-.13,.35-.25,.53-.37,.13-.09,.28-.18,.42-.27,.35-.22,.72-.44,1.1-.65,.18-.09,.35-.19,.53-.28,.27-.14,.54-.28,.83-.41,1.67-.78,3.36-1.32,4.96-1.64,.2-.04,.4-.08,.6-.1,1.14-.19,2.23-.26,3.25-.22,.17,0,.33,.01,.49,.03,.34,.03,.68,.07,1,.12,.16,.03,.33,.06,.47,.09,.16,.04,.32,.07,.47,.11,.15,.03,.3,.08,.44,.12,.32,.1,.63,.21,.92,.34l.3,.16c.13,.06,.25,.13,.37,.2,.26,.15,.5,.31,.71,.48,.09,.08,.18,.16,.26,.23,.1,.1,.2,.18,.28,.28,.18,.19,.34,.4,.48,.61,.07,.11,.14,.22,.2,.34h.03Z" class="f"/><path d="M37.09,17.08l5.45,11.68c1.62,3.9-2.31,9.46-8.88,12.53-6.68,3.11-13.57,2.47-15.39-1.43l-5.36-11.5,24.18-11.28Z" class="l"/><ellipse cx="24.99" cy="22.72" class="k" rx="13.34" ry="7.8" transform="translate(-7.26 12.69) rotate(-25)"/><path d="M15.89,19.61c-1.38,1.22-2.81,2.58-4.27,4.12-1.16,1.21-2.21,2.41-3.16,3.56l6.72-1.6,.72-6.08Z" class="k"/><g class="h"><path d="M31.94,6.27l10.42,22.35c.03,.06,.05,.12,.08,.19,1.62,3.9-2.31,9.46-8.88,12.53-6.68,3.11-13.57,2.47-15.39-1.43l-6-12.87c-2.47,1.01-4.43,1.2-5.59,1.23-.8,0-1.28-.05-1.69-.37,.43-.08,1.27-.32,3.81-2.92,1.54-1.58,2.69-3,3.47-4.03,3.01,.73,7.09,.21,11.1-1.66,6.68-3.11,10.61-8.81,8.79-12.72-.05-.1-.09-.19-.15-.28h.03Z" class="g"/></g><path d="M32.04,6.23h-.02c.06,.1,.1,.19,.15,.29l-.13-.29Zm-1.41,.59s.02,.05,.04,.08v-.03s-.03-.03-.04-.05Z" class="j"/><path d="M31.81,5.9c-.13-.22-.3-.42-.48-.61,.18,.19,.34,.4,.48,.61Zm-1.14,1l.02,.06,.06,.09-.04-.08s-.03-.05-.04-.07Zm-3.62-2.11c.07,.01,.13,.02,.19,.04,.14,.03,.28,.06,.41,.09-.13-.03-.27-.06-.41-.1-.06-.01-.12-.02-.19-.03ZM6,22.85c-.12,.51-.21,.95-.26,1.34,.06-.38,.14-.83,.26-1.34Z" class="j"/><path d="M42.54,28.76c-.02-.07-.05-.12-.08-.19L32.17,6.52c-.05-.1-.09-.19-.15-.28-.07-.12-.13-.23-.21-.34-.14-.21-.3-.42-.48-.61l-.28-.28c-.08-.07-.17-.15-.26-.23-.22-.17-.46-.34-.72-.48-.12-.08-.24-.14-.37-.21l-.3-.15c-.29-.13-.6-.24-.92-.34-.14-.05-.3-.1-.45-.13-.15-.04-.31-.07-.47-.11-.14-.03-.31-.06-.47-.09-.32-.05-.66-.09-1-.12-.16-.01-.32-.02-.49-.02-.19-.01-.38-.01-.58-.01-.85,0-1.75,.07-2.67,.22-.2,.03-.4,.07-.61,.11-1.6,.32-3.29,.86-4.96,1.64-.28,.13-.56,.27-.82,.4-.18,.1-.36,.19-.53,.29-.38,.2-.75,.42-1.1,.64-.15,.09-.3,.18-.43,.28-.18,.12-.36,.24-.53,.37-.2,.12-.38,.26-.54,.39-.15,.11-.29,.21-.43,.32-.1,.08-.21,.18-.3,.25-.15,.12-.29,.24-.43,.37-.41,.35-.78,.73-1.14,1.1-.2,.22-.38,.43-.56,.64-.31,.36-.58,.72-.83,1.08-.09,.14-.18,.28-.26,.41-.09,.13-.17,.27-.24,.4-.02,.04-.04,.07-.06,.1-.09,.17-.17,.33-.24,.49-.15,.3-.28,.62-.39,.92-.15,.4-.26,.78-.32,1.17-.56,.94-1.34,2.41-2.02,4.28-.55,1.54-2.63,7.31-.62,8.85,.39,.3,.84,.37,1.56,.37h.14c1.16-.02,3.11-.21,5.58-1.23l6.01,12.87c1.04,2.24,3.75,3.41,7.13,3.41,2.52,0,5.4-.65,8.25-1.97,6.57-3.07,10.5-8.63,8.88-12.53ZM5.74,24.19c.05-.39,.14-.83,.26-1.34,.21-.9,.54-2,1.02-3.35,.65-1.78,1.39-3.17,1.9-4.03l.14-.24,.05-.28c.04-.26,.13-.56,.25-.89,.1-.29,.21-.55,.34-.82l.18-.36s.05-.09,.09-.15c.05-.09,.1-.18,.16-.27l.02-.04,.02-.03,.12-.18,.09-.15c.23-.33,.48-.64,.75-.97,.16-.19,.33-.38,.49-.56,.37-.39,.71-.72,1.04-1l.02-.02,.02-.02c.1-.1,.21-.19,.34-.29l.15-.13s.09-.07,.14-.11c.11-.09,.22-.18,.34-.26l.05-.03,.04-.03c.13-.11,.28-.22,.41-.31l.04-.02,.04-.03c.15-.11,.3-.22,.46-.32l.04-.02,.03-.02c.1-.08,.22-.15,.34-.23,.33-.2,.68-.41,1.01-.59l.51-.27c.25-.13,.51-.26,.78-.38,1.51-.71,3.07-1.22,4.61-1.53,.17-.03,.34-.07,.51-.09h.05c.83-.14,1.65-.21,2.43-.21,.18,0,.35,0,.52,.01h.06c.12,0,.24,.01,.37,.02,.29,.02,.59,.06,.87,.1,.07,.01,.14,.02,.21,.04,.07,.01,.13,.02,.19,.03,.14,.04,.28,.07,.41,.1h.04l.04,.02c.09,.02,.19,.05,.29,.09,.28,.08,.52,.17,.74,.26l.11,.06,.18,.1c.09,.04,.16,.08,.28,.15,.19,.11,.36,.22,.48,.32,.07,.06,.15,.13,.2,.17l.09,.09s.1,.09,.13,.13c.11,.12,.23,.25,.31,.38l.04,.06,.05,.07s.02,.03,.03,.05v.03s.04,.05,.05,.07l.04,.08,.02,.02s.03,.06,.04,.08c.87,1.87-.3,4.04-1.08,5.17-1.51,2.19-3.99,4.16-6.98,5.56-2.54,1.18-5.24,1.83-7.62,1.83-.9,0-1.74-.09-2.5-.28l-.95-.23-.59,.78c-1.07,1.4-2.17,2.67-3.36,3.89-.95,.97-1.61,1.57-2.07,1.93-.01-.06-.01-.12-.01-.19-.02-.35,0-.81,.09-1.42Zm27.29,15.74c-2.54,1.18-5.24,1.83-7.62,1.83-2.87,0-5.03-.95-5.78-2.54l-6-12.87-.6-1.29-1.32,.54c-1.65,.66-3.26,1.04-4.79,1.1,.5-.41,1.12-.99,1.89-1.78,1.53-1.58,2.68-3,3.47-4.03,.87,.21,1.83,.32,2.85,.32,2.51,0,5.4-.65,8.25-1.97,4.68-2.18,8.01-5.63,8.95-8.84l8.79,18.83v.04l.04,.07c1.28,3.08-2.44,7.93-8.13,10.59Z" class="m"/><path d="M22.85,37.39c-.28,0-.55-.16-.68-.43l-5.94-12.74c-.18-.38-.01-.82,.36-1,.38-.18,.82-.01,1,.36l5.94,12.74c.18,.38,.01,.82-.36,1-.1,.05-.21,.07-.32,.07Z" class="i"/></svg>